# xmcd
#
# Track frame offsets: 
#        150
#        20921
#        33917
#        54836
#        71797
#        93781
#        109713
#        127705
#        145156
#        162275
#
# Disc length: 2505 seconds
#
# Revision: 1
# Processed by: cddbd v1.5.2PL0 Copyright (c) Steve Scherf et al.
# Submitted via: ExactAudioCopy v1.0b3
#
DISCID=7b09c70a
DTITLE=Final Flash - Homeless
DYEAR=2011
DGENRE=Rock
TTITLE0=Chosen Generation
TTITLE1=Precious Field
TTITLE2=When The Day Turns Black
TTITLE3=Go Outside
TTITLE4=Welcome To The House On Fire
TTITLE5=The Black Flame In Me Is A Red Flame In You
TTITLE6=We Leave The Forest
TTITLE7=The Rain Of Stones
TTITLE8=Waiting For The Sun
TTITLE9=The Awakening
EXTD=
EXTT0=
EXTT1=
EXTT2=
EXTT3=
EXTT4=
EXTT5=
EXTT6=
EXTT7=
EXTT8=
EXTT9=
PLAYORDER=
